<?xml version="1.0" encoding="utf-8"?>
<!-- Generator: Adobe Illustrator 19.0.0, SVG Export Plug-In . SVG Version: 6.00 Build 0)  -->
<svg version="1.1" id="Capa_1" xmlns="http://www.w3.org/2000/svg" xmlns:xlink="http://www.w3.org/1999/xlink" x="0px" y="0px"
	 viewBox="0 0 100 100" style="enable-background:new 0 0 100 100;" xml:space="preserve">
<style type="text/css">
	.st0{fill:#E9C61D;}
	.st1{fill:#ECE118;}
	.st2{fill:#EF8128;}
	.st3{fill:#F29F26;}
	.st4{fill:#A1D8F2;}
	.st5{fill:#86CEE8;}
</style>
<g id="XMLID_953_">
	<path id="XMLID_990_" class="st0" d="M52.5,57.4c6.4-6.5,8-16.7,3.8-24.8c-4.6-9.2-15.4-13.9-25.3-11c-9.9,2.8-16.4,12.5-15.5,22.7
		c0.7,7.9,6,15,13.4,18C37,65.6,46.4,63.6,52.5,57.4z M52.5,57.4"/>
	<path id="XMLID_987_" class="st1" d="M50,25c-3.2-2.4-7.6-4.3-11.6-4.3c-0.8,0-1.6,0.7-2.3,1.2c-0.8,0.6-1.5,1.2-2.2,1.8
		c-1.3,1.2-2.5,2.6-3.5,4.2c-3.8,6-4.4,13.8-1.4,20.3c2.8,6,8.3,10.5,14.8,12c0.8,0.2,1.7,0.3,2.5,0.4c0.4,0,0.7,0.1,1.1,0.1
		c0.7,0,1,0,1.6-0.5c1.4-0.9,2.6-1.9,3.7-3.1c2.3-2.4,4-5.3,4.9-8.4C60.4,40.1,57.3,30.4,50,25z M50,25"/>
	<path id="XMLID_984_" class="st2" d="M53.4,42.3c0-6.9-4.6-13.3-11.2-15.5c-4.5-1.5-9.6-0.9-13.7,1.6C21.8,32.6,19,41.2,22,48.6
		c2.7,6.5,9.4,10.6,16.4,10C46.8,57.9,53.4,50.7,53.4,42.3z M53.4,42.3"/>
	<path id="XMLID_981_" class="st3" d="M53.4,41.6C52.9,31,42.1,23.5,32.1,26.8c-0.4,0.1-0.9,0.2-1.2,0.6c-0.7,0.7-1.1,1.8-1.6,2.7
		c-0.9,1.8-1.5,3.8-1.9,5.8c-0.6,3.7-0.3,7.5,1,11c1.2,3.3,3.2,6.2,5.8,8.5c1.3,1.1,2.7,2.1,4.2,2.9c1.1,0.6,2.8-0.1,3.9-0.5
		C49.1,55.4,53.7,48.7,53.4,41.6z M53.4,41.6"/>
	<path id="XMLID_978_" class="st1" d="M37.1,17.1c-0.9,0-1.6-0.7-1.6-1.6V8.8c0-0.9,0.7-1.6,1.6-1.6c0.9,0,1.6,0.7,1.6,1.6v6.7
		C38.7,16.4,38,17.1,37.1,17.1L37.1,17.1z M37.1,17.1"/>
	<path id="XMLID_975_" class="st1" d="M23.7,20.7c-0.6,0-1.1-0.3-1.4-0.8l-3.4-5.8c-0.5-0.8-0.2-1.8,0.6-2.2
		c0.8-0.5,1.8-0.2,2.2,0.6l3.4,5.8c0.5,0.8,0.2,1.8-0.6,2.2C24.3,20.6,24,20.7,23.7,20.7L23.7,20.7z M23.7,20.7"/>
	<path id="XMLID_972_" class="st1" d="M13.9,30.5c-0.3,0-0.6-0.1-0.8-0.2l-5.8-3.4c-0.8-0.5-1.1-1.5-0.6-2.2
		c0.5-0.8,1.5-1.1,2.2-0.6l5.8,3.4c0.8,0.5,1.1,1.5,0.6,2.2C15.1,30.2,14.5,30.5,13.9,30.5L13.9,30.5z M13.9,30.5"/>
	<path id="XMLID_969_" class="st1" d="M10.4,43.9H3.6c-0.9,0-1.6-0.7-1.6-1.6c0-0.9,0.7-1.6,1.6-1.6h6.7c0.9,0,1.6,0.7,1.6,1.6
		C12,43.1,11.3,43.9,10.4,43.9L10.4,43.9z M10.4,43.9"/>
	<path id="XMLID_966_" class="st1" d="M8.1,60.6c-0.6,0-1.1-0.3-1.4-0.8C6.2,59,6.5,58,7.3,57.5l5.8-3.4c0.8-0.5,1.8-0.2,2.2,0.6
		c0.5,0.8,0.2,1.8-0.6,2.2l-5.8,3.4C8.7,60.5,8.4,60.6,8.1,60.6L8.1,60.6z M8.1,60.6"/>
	<path id="XMLID_963_" class="st1" d="M60.2,30.5c-0.6,0-1.1-0.3-1.4-0.8c-0.5-0.8-0.2-1.8,0.6-2.2l5.8-3.4c0.8-0.5,1.8-0.2,2.2,0.6
		c0.5,0.8,0.2,1.8-0.6,2.2l-5.8,3.4C60.8,30.4,60.5,30.5,60.2,30.5L60.2,30.5z M60.2,30.5"/>
	<path id="XMLID_960_" class="st1" d="M50.4,20.7c-0.3,0-0.6-0.1-0.8-0.2C48.8,20,48.6,19,49,18.2l3.4-5.8c0.5-0.8,1.5-1.1,2.2-0.6
		c0.8,0.5,1.1,1.5,0.6,2.2l-3.4,5.8C51.6,20.4,51,20.7,50.4,20.7L50.4,20.7z M50.4,20.7"/>
	<path id="XMLID_957_" class="st4" d="M82.6,62.1c-1.6,0-3.2,0.2-4.6,0.7c0-0.2,0-0.5,0-0.7c0-3.7-1-7.2-2.7-10.2c0,0,0,0,0,0
		c-3.6-7.1-11.2-9.3-11.2-9.3l0,0c-2.1-0.8-4.5-1.2-6.9-1.2c-9.9,0-18.1,6.9-20.2,16.1c-1.2-0.4-2.6-0.6-3.9-0.6
		c-4.2,0-8,2.1-10.2,5.4c-1.3-0.3-2.6-0.5-3.9-0.5c-8.6,0-15.6,7-15.6,15.6c0,8.6,7,15.6,15.6,15.6h63.6C91.1,92.9,98,86,98,77.5
		C98,69,91.1,62.1,82.6,62.1L82.6,62.1z M82.6,62.1"/>
	<path id="XMLID_954_" class="st5" d="M36.2,63.9c0-2.2,0.2-4.4,0.6-6.5c-1.1-0.3-2.4-0.5-3.6-0.5c-4.2,0-8,2.1-10.2,5.4
		c-1.3-0.3-2.6-0.5-3.9-0.5c-8.6,0-15.6,7-15.6,15.6c0,8.6,7,15.6,15.6,15.6h32.2C42.1,86.5,36.2,75.9,36.2,63.9L36.2,63.9z
		 M36.2,63.9"/>
</g>
</svg>
